<svg width="118" height="118" viewBox="0 0 118 118" fill="none" xmlns="http://www.w3.org/2000/svg">
<g clip-path="url(#clip0_2007_358)">
<path d="M90.9228 92.9763C86.672 84.9302 59.3455 79.8812 59.3455 79.8812C59.3455 79.8812 32.0199 84.9302 27.7691 92.9763C24.6281 104.142 22 118.329 22 118.329H59.3455H96.6919C96.6928 118.329 94.9184 103.117 90.9228 92.9763Z" fill="#F1C9A5"/>
<path d="M59.3455 79.8812C59.3455 79.8812 86.672 84.9302 90.9228 92.9763C94.9176 103.117 96.6919 118.329 96.6919 118.329H59.3455V79.8812Z" fill="#E4B692"/>
<path d="M66.7853 63.5235H51.9074V88.4231H66.7853V63.5235Z" fill="#F1C9A5"/>
<path d="M66.7854 63.5235H59.3455V88.4231H66.7854V63.5235Z" fill="#E4B692"/>
<path opacity="0.1" d="M51.9074 75.0617C53.2459 78.9024 58.645 81.1049 62.6107 81.1049C64.0459 81.1049 65.4417 80.8643 66.7853 80.4241V63.5235H51.9074V75.0617Z" fill="#DDAC8C"/>
<path d="M78.4743 47.8124C78.4743 32.2597 69.9101 23.4164 59.3455 23.4164C48.7818 23.4164 40.2176 32.2597 40.2176 47.8124C40.2176 68.7309 48.7818 75.9738 59.3455 75.9738C69.911 75.9738 78.4743 67.8592 78.4743 47.8124Z" fill="#F1C9A5"/>
<path d="M78.4743 47.8124C78.4743 32.2597 69.9101 23.4164 59.3455 23.4164C48.7818 23.4164 40.2176 32.2597 40.2176 47.8124C40.2176 68.7309 48.7818 75.9738 59.3455 75.9738C69.911 75.9738 78.4743 67.8592 78.4743 47.8124Z" fill="#F1C9A5"/>
<path d="M35.9351 51.5614C35.3494 47.3166 37.6872 43.5821 41.1519 43.2207C44.6226 42.8593 47.9067 46.0115 48.4881 50.2564C49.073 54.4978 46.7301 58.2331 43.2645 58.5962C39.7972 58.955 36.5166 55.8062 35.9351 51.5614Z" fill="#F1C9A5"/>
<path d="M78.4743 47.8124C78.4743 32.2597 69.9101 23.4164 59.3455 23.4164V75.9738C69.911 75.9738 78.4743 67.8592 78.4743 47.8124Z" fill="#E4B692"/>
<path d="M90.9228 92.9763C88.1988 87.8203 76.0072 83.8983 67.5946 81.7438C67.2675 86.0169 63.7025 89.3848 59.3455 89.3848C54.9885 89.3848 51.4244 86.0169 51.0973 81.7438C42.6847 83.8983 30.4931 87.8203 27.7691 92.9763C24.6281 104.142 22 118.329 22 118.329H59.3455H96.6919C96.6928 118.329 94.9184 103.117 90.9228 92.9763Z" fill="#102F41"/>
<path d="M43.4537 66.3239C47.6146 73.3904 51.7584 74.4831 51.7584 74.4831L53.0138 78.5549H51.2112H49.7983L49.0147 76.7986H47.2892L46.6615 74.6432L44.9523 75.3616L44.5455 72.9665H42.9759L42.427 70.9704L41.2504 71.5296L40.0738 69.6927L38.427 68.815L39.2114 66.1004H37.2513L37.3301 63.2257L35.8392 63.7052L35.2903 61.1508L32.7804 60.1926L34.976 57.9567L33.8782 57.5576L35.0539 55.4827L34.1916 55.0837L34.034 52.608L31.525 52.1293L32.9371 49.8935L31.2107 47.1789L33.2505 46.0605L32.1527 43.3468L32.7795 40.7915L30.4272 38.875L33.7206 38.5565V36.1613L34.6626 34.0856L33.7206 32.3292L35.447 30.8923L33.7206 29.4545L35.6028 27.538V26.4205L37.3292 24.9836L36.5448 22.7477L39.6807 23.3865L39.8383 19.5544L42.1915 20.3525L42.975 18.7563L45.6416 19.0758C45.6416 19.0758 45.0148 17.7981 46.1118 17.7981C47.2096 17.7981 49.8771 18.9165 49.8771 18.9165L51.2883 17L54.425 19.2359L55.5237 17L57.5626 19.3952L59.4757 17C59.4757 17 59.4757 30.4136 59.4757 38.7166C56.9966 38.5042 55.6796 38.5042 50.2427 36.3745C48.3613 37.6522 42.2959 46.3816 42.2959 47.2328C42.2959 48.084 41.2495 56.8143 41.2495 56.8143L40.1585 51.6078C40.1585 51.6044 41.2461 62.574 43.4537 66.3239Z" fill="#231F20"/>
<path d="M74.8708 66.3239C70.8726 73.3904 66.8915 74.4831 66.8915 74.4831L65.6858 78.5549H67.4173H68.7746L69.5282 76.7986H71.1869L71.7889 74.6432L73.4322 75.3616L73.8235 72.9665H75.3315L75.8582 70.9704L76.9885 71.5296L78.1189 69.6927L79.7014 68.815L78.9478 66.1004H80.8309L80.7555 63.2257L82.1882 63.7052L82.7148 61.1508L85.1263 60.1926L83.0154 57.9567L84.0713 57.5576L82.9409 55.4827L83.7698 55.0837L83.9214 52.608L86.3311 52.1293L84.9747 49.8935L86.6334 47.1789L84.6741 46.0605L85.7283 43.3468L85.1263 40.7915L87.387 38.875L84.2228 38.5565V36.1613L83.3177 34.0856L84.2228 32.3292L82.5641 30.8923L84.2228 29.4545L82.4143 27.538V26.4205L80.7564 24.9836L81.5108 22.7477L78.4965 23.3865L78.345 19.5544L76.0842 20.3525L75.3307 18.7563L72.7685 19.0758C72.7685 19.0758 73.3714 17.7981 72.3172 17.7981C71.2622 17.7981 68.6992 18.9165 68.6992 18.9165L67.3428 17L64.3285 19.2359L63.2735 17L61.3142 19.3952L59.4765 17C59.4765 17 59.4765 30.4136 59.4765 38.7166C61.8571 38.5042 63.1237 38.5042 68.3473 36.3745C70.1559 37.6522 75.9832 46.3816 75.9832 47.2328C75.9832 48.084 76.9885 56.8143 76.9885 56.8143L78.0375 51.6078C78.0375 51.6044 76.9928 62.574 74.8708 66.3239Z" fill="#231F20"/>
<path d="M35.9351 51.5617C35.3494 47.3168 37.6872 43.5824 41.1519 43.221C44.6226 42.8596 47.9067 46.0118 48.4881 50.2566C49.073 54.4981 46.7301 58.2334 43.2645 58.5965C39.7972 58.9553 36.5166 55.8065 35.9351 51.5617Z" fill="#F1C9A5"/>
<path d="M75.5636 58.5965C72.0955 58.2334 69.7551 54.4972 70.3417 50.2566C70.9214 46.0118 74.2063 42.8596 77.6745 43.221C81.14 43.5824 83.4778 47.3168 82.893 51.5617C82.3115 55.8065 79.0309 58.9553 75.5636 58.5965Z" fill="#E4B692"/>
</g>
<defs>
<clipPath id="clip0_2007_358">
<rect width="118" height="118" fill="white"/>
</clipPath>
</defs>
</svg>
