<svg width="118" height="118" viewBox="0 0 118 118" fill="none" xmlns="http://www.w3.org/2000/svg">
<path d="M46.874 76.4436H69.4761C69.4761 76.4436 81.0796 64.9952 80.6315 50.1392C80.1834 35.2833 65.9925 26.1721 53.2964 26.1721C40.6004 26.173 31.1899 57.4068 46.874 76.4436Z" fill="#A25A34"/>
<path d="M89.8144 92.7252C85.6325 84.8088 58.7456 79.841 58.7456 79.841C58.7456 79.841 31.8586 84.8088 27.6767 92.7252C24.5856 103.711 22 117.67 22 117.67H58.7456H95.4911C95.4911 117.67 93.7443 102.703 89.8144 92.7252Z" fill="#F1C9A5"/>
<path d="M58.7455 79.841C58.7455 79.841 85.6325 84.8088 89.8144 92.7252C93.7452 102.703 95.4911 117.67 95.4911 117.67H58.7455V79.841Z" fill="#E4B692"/>
<path d="M66.0651 63.7465H51.426V88.2459H66.0651V63.7465Z" fill="#F1C9A5"/>
<path d="M66.0651 63.7465H58.7455V88.2459H66.0651V63.7465Z" fill="#E4B692"/>
<path opacity="0.1" d="M51.426 75.099C52.7426 78.8785 58.0554 81.0446 61.9576 81.0446C63.3692 81.0446 64.7422 80.808 66.0651 80.3752V63.7465H51.426V75.099Z" fill="#DDAC8C"/>
<path d="M77.5665 48.2877C77.5665 32.9854 69.1401 24.2839 58.7456 24.2839C48.3511 24.2839 39.9247 32.9854 39.9247 48.2877C39.9247 63.5899 48.3511 75.9965 58.7456 75.9965C69.1392 75.9965 77.5665 63.5908 77.5665 48.2877Z" fill="#F1C9A5"/>
<path d="M74.7012 58.897C71.2892 58.517 68.9859 54.6103 69.564 50.1748C70.1349 45.7358 73.3658 42.4403 76.7795 42.8177C80.1897 43.1959 82.4894 47.1008 81.9141 51.5398C81.3414 55.9788 78.1131 59.2716 74.7012 58.897Z" fill="#E4B692"/>
<path d="M35.7106 51.5398C35.1343 47.1008 37.435 43.1959 40.8433 42.8177C44.258 42.4403 47.4898 45.7358 48.0625 50.1748C48.6388 54.6103 46.3328 58.5179 42.9235 58.897C39.5107 59.2716 36.2824 55.9788 35.7106 51.5398Z" fill="#F1C9A5"/>
<path d="M77.5664 48.2877C77.5664 32.9854 69.1401 24.2839 58.7455 24.2839V75.9965C69.1392 75.9965 77.5664 63.5908 77.5664 48.2877Z" fill="#E4B692"/>
<path d="M89.8144 92.7242C89.5652 92.2519 89.23 91.7894 88.8276 91.3377C84.2649 97.3443 72.5207 101.621 58.7464 101.621H58.7456C58.7447 101.621 58.7447 101.621 58.7447 101.621C44.9705 101.621 33.2253 97.3452 28.6626 91.3386C28.262 91.7894 27.9268 92.2519 27.6767 92.7242C24.5856 103.71 22 117.669 22 117.669H58.7456H95.4911C95.4911 117.669 93.7443 102.702 89.8144 92.7242Z" fill="#01561E"/>
<path d="M50.8802 32.0247C54.0044 37.6629 61.8348 40.875 67.4838 45.1106C77.3746 52.5261 72.9042 68.9217 69.4752 76.4447C81.9042 69.2202 91.0171 57.0995 86.4445 37.4586C81.8719 17.8167 66.264 9.45937 50.1184 16.424C36.8317 12.9403 23.1946 33.1172 24.7666 51.3663C26.3377 69.6136 46.874 76.4438 46.874 76.4438C46.874 76.4438 34.6252 49.2584 50.8802 32.0247Z" fill="#D1874A"/>
</svg>
