<svg width="118" height="118" viewBox="0 0 118 118" fill="none" xmlns="http://www.w3.org/2000/svg">
<g clip-path="url(#clip0_2007_9)">
<path d="M21.0084 119V17C16.5462 17 8.11766 18 2.16808 23C-1.60792 26.1733 -5.76469 35 -6.26049 46.5C-9.23528 46 -10.218 46.9503 -10.7227 49.5C-11.2274 52.0497 -10.2269 54.8333 -9.23528 56C-6.26049 59.5 -4.08592 61.1053 -3.7815 61.5C-0.310911 66 1.17648 72.1667 4.64707 76.5C4.64707 79 4.64707 81 2.16808 83.5C-1.30251 87 -10.7227 93 -15.1849 97.5C-21.6493 104.019 -22.126 110.5 -22.126 119H21.0084Z" fill="#FFD098"/>
<path d="M21.0084 119V17C25.4706 17 33.8992 18 39.8487 23C43.6247 26.1733 47.7815 35 48.2773 46.5C51.2521 46 52.2348 46.9503 52.7395 49.5C53.2442 52.0497 52.2437 54.8333 51.2521 56C48.2773 59.5 46.1027 61.1053 45.7983 61.5C42.3277 66 40.8403 72.1667 37.3697 76.5C37.3697 79 37.3697 81 39.8487 83.5C43.3193 87 52.7395 93 57.2017 97.5C63.6661 104.019 64.1429 110.5 64.1429 119H21.0084Z" fill="#F1BA85"/>
<path fill-rule="evenodd" clip-rule="evenodd" d="M-5.76471 47C-4.93837 50.5 -3.21276 57.4162 0.18487 60.5C5.14285 65 8.61344 67.5 10.5966 68C11.9187 66.5 16.6454 63.5 21.0084 63.5C25.3714 63.5 30.0981 66.5 31.4202 68C33.4034 67.5 36.8739 65 41.8319 60.5C45.2295 57.4162 46.9552 50.5 47.7815 47C47.7815 62.5 41.3813 72.6059 38.8571 76C35.8823 80 33.4034 82 30.4286 84C27.4538 86 23.9832 87 21.0084 87C18.0336 87 14.563 86 11.5882 84C8.61344 82 6.13445 80 3.15966 76C0.635461 72.6059 -5.76471 62.5 -5.76471 47Z" fill="#0A2F3D"/>
<path fill-rule="evenodd" clip-rule="evenodd" d="M2.66385 82L3.15965 101.5C4.64705 107 10.2991 113.5 21.0084 113.5C31.7176 113.5 37.3697 107 38.8571 101.5L39.3529 82L46.7899 88.5C46.7899 89.7856 46.7178 91.4281 46.6376 93.2543C46.406 98.5307 46.1071 105.34 47.2857 109.5C48.8723 115.1 55.2185 118.167 58.1933 119H21.0084H-16.1765C-13.2017 118.167 -6.85548 115.1 -5.26892 109.5C-4.09031 105.34 -4.38918 98.5307 -4.62081 93.2543C-4.70103 91.4281 -4.77312 89.7856 -4.77312 88.5L2.66385 82Z" fill="#C53838"/>
<path d="M15.0588 71.2804C15.0588 70.7996 15.3208 70.3541 15.7455 70.1358C19.8882 68.0061 22.4103 68.0183 26.3196 70.1419C26.7163 70.3574 26.958 70.7804 26.958 71.2348C26.958 72.2259 25.8782 72.8333 24.9886 72.4123C22.2343 71.1089 20.045 71.1393 17.0251 72.4999C16.1223 72.9066 15.0588 72.2776 15.0588 71.2804Z" fill="#FFD098"/>
<path d="M9.10924 52C13.7642 52 17.5378 49.0899 17.5378 45.5C17.5378 41.9101 13.7642 39 9.10924 39C4.45426 39 0.680664 41.9101 0.680664 45.5C0.680664 49.0899 4.45426 52 9.10924 52Z" fill="black"/>
<path d="M31.916 52C36.5709 52 40.3445 49.0899 40.3445 45.5C40.3445 41.9101 36.5709 39 31.916 39C27.261 39 23.4874 41.9101 23.4874 45.5C23.4874 49.0899 27.261 52 31.916 52Z" fill="black"/>
<path d="M-9.73109 29.904C-10.3922 32.404 -10.7227 44.4 -6.7563 48C-5.7647 47.6666 -1.69182 36.004 -0.898538 34.404C-0.10527 32.804 1.01117 39.3333 1.17647 38.5C2.33336 39.5 4.35691 32.904 5.54683 32.904C7.03422 32.904 10.5966 35.5 11.5882 35.5C12.5798 35.5 13.4796 29.904 14.967 27.904C16.4544 25.904 13.0756 37 16.0504 35.5C18.4303 34.3 22 35.904 22 30.904C25.5624 38.5 30.1311 37.1 30.9244 35.5C31.916 33.5 39.2611 34.404 40.7485 36.404C41.9384 38.004 46.5328 40.6667 47.6897 41C48.8466 40.6667 45.7065 47.1 47.6897 45.5C50.1687 43.5 51.6561 33.404 51.6561 30.904C51.6561 28.404 50.7563 29.904 49.7647 27.904C48.7731 25.904 47.6897 25.404 47.6897 22.904C47.6897 20.404 49.7647 20.5 45.7983 19C41.8319 17.5 40.3445 18.5 42.3277 15C44.3109 11.5 36.2863 10.904 32.3199 8.40398C28.3536 5.90398 23.4874 11 21.5042 8.99997C19.521 6.99997 20.4208 10.404 16.9502 8.40398C13.4796 6.40398 9.51322 13.904 7.03423 11.904C4.55523 9.90398 -0.40274 18.404 -1.89013 17.404C-3.08005 16.604 -8.24369 26.904 -9.73109 29.904Z" fill="#0A2F3D"/>
<path d="M48.7731 45.5L39.353 47.5L26.4622 46C21.0084 42.1551 20.5126 41.7278 15.5546 46L1.17649 47L-6.75629 45.5" stroke="black"/>
<path d="M30.6647 40.0206C26.9301 40.2713 25.4706 45 25.4706 45C25.4706 45 27.9082 42.8866 29.437 42C31.8307 40.6118 35.3866 41.8879 35.3866 41.8879C35.3866 41.8879 34.3992 39.77 30.6647 40.0206Z" fill="white"/>
<path d="M7.85794 41.0206C4.12335 41.2713 2.66386 46 2.66386 46C2.66386 46 5.10147 43.8866 6.63025 43C9.02398 41.6118 12.5798 42.8879 12.5798 42.8879C12.5798 42.8879 11.5925 40.77 7.85794 41.0206Z" fill="white"/>
</g>
<defs>
<clipPath id="clip0_2007_9">
<rect width="118" height="118" fill="white"/>
</clipPath>
</defs>
</svg>
