<svg width="118" height="118" viewBox="0 0 118 118" fill="none" xmlns="http://www.w3.org/2000/svg">
<g clip-path="url(#clip0_2007_73)">
<path d="M93.667 92.8094C89.001 84.7861 59.001 79.7512 59.001 79.7512C59.001 79.7512 29.001 84.7861 24.335 92.8094C20.886 103.944 18.001 118.091 18.001 118.091H59.001H100.001C100.001 118.091 98.052 102.922 93.667 92.8094Z" fill="#F1C9A5"/>
<path d="M59.001 79.7512C59.001 79.7512 89.001 84.7861 93.667 92.8094C98.053 102.922 100.001 118.091 100.001 118.091H59.001V79.7512Z" fill="#E4B692"/>
<path d="M67.168 63.4393H50.834V88.2695H67.168V63.4393Z" fill="#F1C9A5"/>
<path d="M67.168 63.4393H59.001V88.2695H67.168V63.4393Z" fill="#E4B692"/>
<path opacity="0.1" d="M50.834 74.9452C52.303 78.7756 58.231 80.9711 62.585 80.9711C64.16 80.9711 65.692 80.7313 67.168 80.2925V63.4393H50.834V74.9452Z" fill="#DDAC8C"/>
<path d="M80.001 47.7714C80.001 32.2626 70.599 23.4435 59.001 23.4435C47.403 23.4435 38.001 32.2626 38.001 47.7714C38.001 68.6322 47.403 75.8544 59.001 75.8544C70.598 75.8544 80.001 67.7629 80.001 47.7714Z" fill="#F1C9A5"/>
<path d="M76.804 58.5262C72.997 58.1638 70.427 54.4387 71.071 50.2095C71.708 45.9767 75.313 42.8338 79.122 43.1935C82.927 43.5532 85.493 47.2774 84.851 51.5102C84.213 55.744 80.611 58.8841 76.804 58.5262Z" fill="#E4B692"/>
<path d="M33.299 51.5111C32.656 47.2783 35.223 43.5541 39.026 43.1944C42.836 42.8338 46.442 45.9767 47.081 50.2104C47.723 54.4396 45.151 58.1656 41.347 58.5271C37.539 58.8841 33.937 55.744 33.299 51.5111Z" fill="#F1C9A5"/>
<path d="M80.001 47.7714C80.001 32.2626 70.599 23.4435 59.001 23.4435V75.8544C70.598 75.8544 80.001 67.7629 80.001 47.7714Z" fill="#E4B692"/>
<path d="M93.667 92.8094C90.941 88.1242 79.585 84.4609 70.602 82.2219L59.001 118.091L47.4 82.2219C38.417 84.4609 27.06 88.1242 24.334 92.8094C20.885 103.944 18 118.091 18 118.091H59H100C100.001 118.091 98.052 102.922 93.667 92.8094Z" fill="#0D313D"/>
<path d="M47.027 82.2219L59.001 118.091L70.646 82.2219L59.001 94.2664L47.027 82.2219Z" fill="#F1F2F2"/>
<path d="M59.001 118.091L76.729 100.156L70.646 98.0632L81.229 85.0059L70.945 82.2219L59.001 118.091Z" fill="#2B5770"/>
<path d="M59.001 118.091L41.272 100.156L47.355 98.0632L36.772 85.0059L47.056 82.2219L59.001 118.091Z" fill="#2B5770"/>
<path d="M43.973 96.7987L53.05 89.1351L58.985 94.2654L50.833 81.4025L45.854 81.7504C45.497 86.7516 43.973 96.7987 43.973 96.7987Z" fill="white"/>
<path d="M73.999 96.7987L64.922 89.1351L58.986 94.2654L67.138 81.4025L72.117 81.7504C72.475 86.7516 73.999 96.7987 73.999 96.7987Z" fill="white"/>
<path d="M82.057 44.2753C82.057 44.2753 78.313 41.7092 76.709 49.2411C77.23 42.1634 76.851 32.3997 70.528 30.613C67.015 36.3546 53.11 40.0534 43.979 38.0123C44.68 44.5205 42.575 49.8806 40.186 51.2831C40.326 46.0511 40.324 42.8601 36.672 43.882C35.69 32.9093 42.306 19 60.146 19C77.987 19.0009 83.884 29.9827 82.057 44.2753Z" fill="#262421"/>
</g>
<defs>
<clipPath id="clip0_2007_73">
<rect width="118" height="118" fill="white"/>
</clipPath>
</defs>
</svg>
