<svg width="118" height="118" viewBox="0 0 118 118" fill="none" xmlns="http://www.w3.org/2000/svg">
<path d="M38.5628 54.8005C38.5628 54.8005 42.0119 67.6258 50.7979 70.8595C64.5175 70.8595 66.7683 71.1474 66.7683 71.1474C66.7683 71.1474 77.3401 67.3504 81.062 52.4129C78.9203 29.7061 63.2262 22.731 63.2262 22.731L38.5628 54.8005Z" fill="#10303F"/>
<path d="M91.6232 91.4813C87.185 83.079 58.9992 77.5337 58.9992 77.5337C58.9992 77.5337 30.7212 82.6318 25.962 91.4339C22.6801 103.093 20.2138 117.544 20.2138 117.544L58.9992 117.684L97.1944 117.508C97.1944 117.508 95.794 102.071 91.6232 91.4813Z" fill="#F1C9A5"/>
<path d="M58.9992 77.5348C58.9992 77.5348 87.5365 82.8073 91.9746 91.2097C96.1454 101.799 98.0001 117.684 98.0001 117.684H58.9992V77.5348Z" fill="#E4B692"/>
<path d="M66.7675 60.4527H51.2317V86.4548H66.7675V60.4527Z" fill="#F1C9A5"/>
<path d="M66.7684 60.4527H58.9992V86.4548H66.7684V60.4527Z" fill="#E4B692"/>
<path opacity="0.1" d="M51.2317 72.5018C52.6276 76.5125 58.2667 78.8125 62.408 78.8125C63.9068 78.8125 65.3653 78.5622 66.7675 78.1016V60.4527H51.2317V72.5018Z" fill="#DDAC8C"/>
<path d="M78.9749 44.045C78.9749 27.8037 70.0324 18.5688 58.9992 18.5688C47.9677 18.5688 39.0234 27.8037 39.0234 44.045C39.0234 60.2864 47.9677 73.4533 58.9992 73.4533C70.0324 73.4533 78.9749 60.2864 78.9749 44.045Z" fill="#F1C9A5"/>
<path d="M76.6481 55.3071C73.0273 54.9351 70.5824 51.0943 71.1949 46.7348C71.8012 42.3727 75.2298 39.1337 78.8533 39.5057C82.4723 39.8768 84.3529 43.7471 83.7421 48.1102C83.1367 52.4723 80.2689 55.6755 76.6481 55.3071Z" fill="#E4B692"/>
<path d="M33.8779 48.0771C33.2662 43.714 35.7084 39.8768 39.3257 39.5057C42.95 39.1337 46.3804 42.3727 46.9858 46.7348C47.5975 51.0943 45.1517 54.9351 41.5309 55.3071C37.911 55.6755 34.486 52.4392 33.8779 48.0771Z" fill="#F1C9A5"/>
<path d="M78.9749 44.045C78.9749 27.8037 70.0324 18.5688 58.9992 18.5688V73.4533C70.0324 73.4533 78.9749 60.2864 78.9749 44.045Z" fill="#E4B692"/>
<path d="M58.332 22.6682C68.6436 22.6682 77.2087 28.6203 78.9525 36.4557C79.1653 35.4998 79.2825 34.5152 79.2825 33.51C79.2825 24.2698 69.9036 16.7769 58.332 16.7769C46.7622 16.7769 37.3833 24.2698 37.3833 33.51C37.3833 34.5152 37.5005 35.4998 37.7151 36.4557C39.4571 28.6203 48.0222 22.6682 58.332 22.6682Z" fill="#FAE43E"/>
<path d="M91.9745 91.2097C90.8022 88.9911 87.9451 86.9924 84.3824 85.2495C78.7969 86.2815 69.5137 86.9576 58.9991 86.9576C48.4845 86.9576 39.2031 86.2815 33.6176 85.2495C30.0532 86.9924 27.1969 88.9911 26.0255 91.2097C22.7436 102.869 20 117.684 20 117.684H58.9991H98C98 117.684 96.1453 101.799 91.9745 91.2097Z" fill="#1D3D4C"/>
<path d="M72.226 27.0171C72.226 27.0171 72.6624 35.7763 60.26 46.6208C63.3076 41.6157 63.3076 38.2784 63.3076 38.2784C63.3076 38.2784 60.7492 43.6233 53.2419 48.9414C54.1398 46.6745 56.6705 38.4617 56.6705 38.4617C56.6705 38.4617 51.855 45.8911 49.4083 50.5833C50.3884 46.8301 50.9571 41.1999 55.4463 36.8986C51.3658 39.1655 45.0837 45.8911 45.3287 54.416C43.8595 52.3825 44.2682 45.2669 44.2682 45.2669C44.2682 45.2669 40.5973 48.5515 41.8197 61.2195C40.515 59.6563 38.9644 46.205 38.9644 46.205C38.9644 46.205 36.219 48.6034 36.5436 56.2144C33.3896 50.7916 23.4473 23.3444 56.0177 13.4621C56.0177 13.4621 73.9671 9.4469 81.6362 25.0882C89.307 40.7286 82.1271 56.5273 78.5358 62.001C79.6777 56.9959 80.7383 52.9289 80.0864 50.662C78.8622 55.1189 75.109 56.0579 75.109 56.0579C75.109 56.0579 79.6777 49.8795 79.3531 46.4375C75.9246 51.6778 71.8468 52.5372 71.4372 52.3807C77.638 44.4827 77.638 40.8064 77.3947 37.9913C74.7012 44.4827 71.6814 45.9689 71.6814 45.9689C71.6814 45.9689 76.5774 36.5051 76.5774 32.3602C73.2329 38.1469 72.581 38.3821 71.1931 39.7119C73.6425 36.0374 73.4225 29.7303 72.226 27.0171Z" fill="#10303F"/>
<path d="M59.4704 97.1871L61.3322 102.922H67.3639L62.484 106.465L64.3467 112.199L59.4704 108.655L54.5923 112.199L56.4559 106.465L51.5777 102.922H57.6068L59.4704 97.1871Z" fill="#F06B7E"/>
<path d="M70.6297 101.785L71.9836 105.952H76.3636L72.8197 108.528L74.1736 112.692L70.6297 110.117L67.0858 112.692L68.4397 108.528L64.8958 105.952H69.2758L70.6297 101.785Z" fill="#F06B7E"/>
<path d="M47.0421 101.785L48.3942 105.952H52.776L49.2321 108.528L50.586 112.692L47.0421 110.117L43.4964 112.692L44.8521 108.528L41.3064 105.952H45.6864L47.0421 101.785Z" fill="#F06B7E"/>
</svg>
