<svg width="118" height="118" viewBox="0 0 118 118" fill="none" xmlns="http://www.w3.org/2000/svg">
<g clip-path="url(#clip0_2007_278)">
<path d="M93.667 91.2856C89.001 82.6996 59.001 77.3116 59.001 77.3116C59.001 77.3116 29.001 82.6996 24.335 91.2856C20.886 103.201 18.001 118.34 18.001 118.34H59.001H100.001C100.001 118.34 98.052 102.107 93.667 91.2856Z" fill="#F1C9A5"/>
<path d="M59.001 77.3116C59.001 77.3116 89.001 82.6996 93.667 91.2856C98.053 102.107 100.001 118.34 100.001 118.34H59.001V77.3116Z" fill="#E4B692"/>
<path d="M67.168 59.8557H50.834V86.4271H67.168V59.8557Z" fill="#F1C9A5"/>
<path d="M67.168 59.8557H59.001V86.4271H67.168V59.8557Z" fill="#E4B692"/>
<path opacity="0.1" d="M50.834 72.1684C52.303 76.2674 58.231 78.6168 62.585 78.6168C64.16 78.6168 65.692 78.3602 67.168 77.8907V59.8557H50.834V72.1684Z" fill="#DDAC8C"/>
<path d="M93.667 91.2855C90.941 86.2717 79.585 82.3515 70.602 79.9554C70.251 85.8946 65.2 90.6089 59.001 90.6089C52.803 90.6089 47.752 85.8946 47.4 79.9554C38.417 82.3515 27.06 86.2717 24.334 91.2855C20.885 103.201 18 118.34 18 118.34H59H100C100.001 118.34 98.052 102.107 93.667 91.2855Z" fill="white"/>
<path d="M80.001 43.0891C80.001 26.4926 70.599 17.0552 59.001 17.0552C47.403 17.0552 38.001 26.4926 38.001 43.0891C38.001 50.0421 40.189 65.4371 43.925 68.5748C46.49 70.7901 54.863 74.5849 58.958 74.5849H58.959C58.973 74.5849 58.987 74.583 59.002 74.583C59.016 74.583 59.03 74.5849 59.043 74.5849H59.045C63.141 74.5849 71.514 70.7911 74.078 68.5748C77.962 64.5876 80.001 49.4715 80.001 43.0891Z" fill="#F1C9A5"/>
<path d="M59.002 74.583C59.016 74.583 59.03 74.5849 59.043 74.5849H59.045C63.141 74.5849 71.514 70.7911 74.078 68.5748C77.962 64.5866 80.001 49.4715 80.001 43.0891C80.001 26.4926 70.599 17.0552 59.001 17.0552L59.002 74.583Z" fill="#E4B692"/>
<path d="M76.804 54.5982C72.997 54.2113 70.427 50.224 71.072 45.6983C71.709 41.1686 75.314 37.8054 79.123 38.1903C82.928 38.5752 85.494 42.5605 84.852 47.0902C84.213 51.6209 80.611 54.9812 76.804 54.5982Z" fill="#E4B692"/>
<path d="M33.299 47.0911C32.656 42.5614 35.223 38.5761 39.026 38.1911C42.836 37.8052 46.442 41.1685 47.081 45.6991C47.724 50.2249 45.151 54.2122 41.347 54.599C37.539 54.981 33.937 51.6207 33.299 47.0911Z" fill="#F1C9A5"/>
<path d="M24.335 91.2854C20.886 103.201 18.001 118.34 18.001 118.34H47.778C42.724 96.6588 42.529 81.3804 42.529 81.3513C34.709 83.758 26.584 87.1485 24.335 91.2854Z" fill="#FB6020"/>
<path d="M93.667 91.2854C98.337 102.496 100.001 118.34 100.001 118.34H70.223C75.277 96.6588 75.472 81.3804 75.472 81.3513C83.293 83.758 91.418 87.1485 93.667 91.2854Z" fill="#FB6020"/>
<path d="M39.286 54.1389C39.286 54.1389 42.353 64.181 45.674 65.886C47.207 65.886 48.357 65.886 48.357 65.886L51.677 61.3126L58.958 59.3403V74.5857H49.505L40.053 66.335L39.286 54.1389Z" fill="#915F2C"/>
<path d="M78.673 54.1389C78.673 54.1389 75.606 64.181 72.285 65.886C70.752 65.886 69.602 65.886 69.602 65.886L66.282 61.3126L59.001 59.3403V74.5857H68.454L77.906 66.335L78.673 54.1389Z" fill="#915F2C"/>
<path d="M62.369 64.3609C62.369 64.3609 61.869 62.1972 58.952 62.1972C56.285 62.1972 55.535 64.3609 55.535 64.3609H62.369Z" fill="white"/>
<path d="M38.034 38.2376C38.034 38.2376 40.817 38.8004 42.615 40.832C42.298 37.2773 41.595 25.469 46.035 22.5063C50.475 19.5445 52.552 22.6336 59.001 22.6336C59.001 17.9785 59.001 14 59.001 14C59.001 14 51.25 14 48.519 14C45.787 14 37.118 15.2695 37.118 23.2256C37.117 31.1826 38.034 38.2376 38.034 38.2376Z" fill="#915F2C"/>
<path d="M79.967 38.2376C79.967 38.2376 77.184 38.8004 75.386 40.832C75.703 37.2773 76.406 25.469 71.966 22.5063C67.527 19.5445 65.449 22.6336 59 22.6336C59 17.9785 59 14 59 14C59 14 66.751 14 69.482 14C72.214 14 80.883 15.2695 80.883 23.2256C80.884 31.1826 79.967 38.2376 79.967 38.2376Z" fill="#915F2C"/>
</g>
<defs>
<clipPath id="clip0_2007_278">
<rect width="118" height="118" fill="white"/>
</clipPath>
</defs>
</svg>
