<svg width="118" height="118" viewBox="0 0 118 118" fill="none" xmlns="http://www.w3.org/2000/svg">
<g clip-path="url(#clip0_2007_109)">
<path d="M47.6074 18.8487C47.6074 18.8487 36.2122 17.1029 31.8307 28.3138C28.95 35.6888 32.7322 58.5158 30.0277 66.4033C33.6338 59.192 34.5353 56.9381 34.5353 56.9381C34.5353 56.9381 33.6347 69.3323 31.6053 72.2632C36.7891 61.2186 36.7891 64.1486 36.7891 64.1486C36.7891 64.1486 36.79 73.1665 34.9861 77.447C39.0429 70.6846 39.9445 66.4024 39.9445 66.4024C39.9445 66.4024 41.2959 69.1069 38.8167 75.1923C40.846 72.2632 42.4236 67.5293 42.4236 67.5293C42.4236 67.5293 42.7608 73.391 43.5497 75.9829C44.0013 72.1496 45.1282 71.0236 45.1282 71.0236C45.1282 71.0236 47.044 74.2898 47.6065 76.8826C48.1709 73.1638 47.6065 70.5728 47.6065 70.5728L51.2341 77.0364L64.0603 76.0938L65.6379 71.8115C65.6379 71.8115 66.9911 74.2916 65.6379 76.9962C67.4419 75.3058 68.4552 73.2765 68.4552 71.4735C68.7933 76.4327 68.4552 79.7008 68.4552 79.7008C71.2716 74.9678 71.4979 70.2356 71.4979 70.2356C71.4979 70.2356 72.5112 77.5588 72.2858 77.8959C72.0604 78.234 74.5405 74.2898 74.2024 69.1069C75.3293 74.0653 76.1173 75.0814 74.9913 77.6723C78.3711 72.6004 77.1324 68.2063 77.1324 68.2063C77.1324 68.2063 79.1626 70.7973 78.9363 73.6146C81.0766 68.0927 79.8379 64.8256 79.8379 64.8256C79.8379 64.8256 82.7669 66.9676 82.0917 70.9109C84.1201 66.177 82.1927 61.3313 82.1927 61.3313C82.1927 61.3313 84.0065 63.3606 86.8247 63.586C84.6836 60.7696 85.1343 56.7119 85.1343 56.7119C85.1343 56.7119 87.1628 57.2753 87.2755 59.8672C87.9525 56.8237 89.8673 49.3861 87.2755 45.3292C90.3181 46.9069 90.9942 47.5839 90.9942 47.5839C90.9942 47.5839 88.8531 42.1748 86.0359 40.1463C84.6836 34.6245 82.9941 28.9899 79.6125 27.525C83.8947 28.9908 86.712 29.7797 88.4024 28.4274C85.4724 28.202 81.7536 25.611 80.0632 22.5666C84.3455 22.9055 86.1485 24.5959 86.1485 24.5959C86.1485 24.5959 82.2053 19.4121 77.4723 18.8487C72.5139 13.6649 65.8079 9.8513 60.5114 11.3163C55.214 12.7795 50.9881 13.1014 47.6074 18.8487Z" fill="#5A3017"/>
<path d="M91.9834 91.6665C87.5447 83.263 59.0044 77.9898 59.0044 77.9898C59.0044 77.9898 30.4641 83.263 26.0254 91.6665C22.7439 103.327 20 118.144 20 118.144H59.0044H98.0088C98.0088 118.144 96.1557 102.257 91.9834 91.6665Z" fill="#F1C9A5"/>
<path d="M59.0044 77.9898C59.0044 77.9898 87.5447 83.263 91.9834 91.6665C96.1557 102.258 98.0088 118.144 98.0088 118.144H59.0044V77.9898Z" fill="#E4B692"/>
<path d="M66.7747 60.9056H51.235V86.9112H66.7747V60.9056Z" fill="#F1C9A5"/>
<path d="M66.7747 60.9056H59.0044V86.9112H66.7747V60.9056Z" fill="#E4B692"/>
<path opacity="0.1" d="M51.235 72.9563C52.6329 76.9676 58.2728 79.2679 62.4147 79.2679C63.9136 79.2679 65.3706 79.0175 66.7747 78.5569V60.9056H51.235V72.9563Z" fill="#DDAC8C"/>
<path d="M78.9829 44.4956C78.9829 28.252 70.0374 19.0158 59.0044 19.0158C47.9715 19.0158 39.026 28.252 39.026 44.4956C39.026 66.3442 47.9715 73.9079 59.0044 73.9079C70.0374 73.9079 78.9829 65.4328 78.9829 44.4956Z" fill="#F1C9A5"/>
<path d="M75.942 55.7591C72.3207 55.3799 69.8754 51.4787 70.4881 47.0488C71.0945 42.6155 74.5244 39.3233 78.1475 39.7007C81.767 40.0781 84.2077 43.9776 83.5969 48.411C82.9887 52.8444 79.5633 56.1339 75.942 55.7591Z" fill="#E4B692"/>
<path d="M34.5531 48.411C33.9414 43.9776 36.383 40.0781 40.0008 39.7007C43.6265 39.3233 47.0564 42.6155 47.6628 47.0488C48.2746 51.4787 45.8276 55.3799 42.2072 55.7591C38.5868 56.1339 35.1604 52.8444 34.5531 48.411Z" fill="#F1C9A5"/>
<path d="M78.9829 44.4956C78.9829 28.252 70.0374 19.0158 59.0044 19.0158V73.9079C70.0374 73.9079 78.9829 65.4328 78.9829 44.4956Z" fill="#E4B692"/>
<path d="M91.9834 91.6666C89.3907 86.7592 78.5867 82.9223 70.0409 80.5782L59.0044 103.437L47.9679 80.5773C39.4213 82.9214 28.6182 86.7583 26.0254 91.6657C22.7439 103.327 20 118.144 20 118.144H59.0044H98.0088C98.0088 118.144 96.1557 102.257 91.9834 91.6666Z" fill="#3A526E"/>
<path d="M72.5246 83.4659C71.4352 80.1317 68.3756 79.7936 68.3756 79.7936L65.0405 88.1944L73.2714 95.8449C73.2723 95.8431 72.8644 88.7033 72.5246 83.4659Z" fill="white"/>
<path d="M49.6054 79.7929C49.6054 79.7929 46.5449 80.1318 45.4555 83.4652C45.1157 88.7026 44.7078 95.8433 44.7078 95.8433L52.9387 88.1928L49.6054 79.7929Z" fill="white"/>
<path d="M42.6338 82.1683C35.4154 84.5071 28.0976 87.7438 26.0254 91.6656C22.7439 103.327 20 118.144 20 118.144H42.6347L42.6338 82.1683Z" fill="#161510"/>
<path d="M74.5039 81.8912V118.145H98.0088C98.0088 118.145 96.1557 102.257 91.9835 91.6667C89.8271 87.5856 81.9951 84.2487 74.5039 81.8912Z" fill="#161510"/>
<path d="M77.2451 44.2208C77.0555 43.9319 76.8051 43.6886 76.4902 43.4892C75.7184 42.9928 74.5557 42.7549 72.928 42.7549C71.4657 42.7549 69.8817 42.9427 68.4838 43.1091C68.1592 43.1466 67.8453 43.1842 67.5501 43.2173C63.7168 43.6412 61.5999 44.481 60.6867 45.9379C60.3826 46.4227 60.2359 46.9388 60.1966 47.4852C59.3389 47.182 58.4964 47.3144 57.8211 47.5961C57.7952 47.0094 57.6476 46.4558 57.323 45.9379C56.4098 44.481 54.2929 43.6412 50.4596 43.2173C50.1644 43.1842 49.8505 43.1466 49.5259 43.1091C48.128 42.9418 46.5431 42.7549 45.0826 42.7549C44.7562 42.7549 44.4494 42.7665 44.1596 42.7862C42.4183 42.8998 41.3281 43.364 40.7646 44.2208C40.4525 44.6966 40.3371 45.2725 40.406 45.9397C40.4569 46.4227 40.6018 46.9522 40.8531 47.5317C43.0685 52.6395 45.8885 55.1115 49.7253 55.3092C49.8791 55.3172 50.0437 55.3226 50.2163 55.3226C52.8064 55.3226 55.8982 54.4094 56.8078 51.848L56.8329 51.7755C57.1772 50.8087 57.4983 49.8982 57.678 49.0477C57.8042 48.9529 58.0188 48.8134 58.2934 48.698C58.745 48.5075 59.3532 48.3966 59.9864 48.698C60.0902 48.7463 60.193 48.8035 60.2977 48.876C60.4667 49.7766 60.8092 50.7434 61.175 51.7746L61.201 51.8471C62.1114 54.4076 65.2033 55.3217 67.7925 55.3217C67.9642 55.3217 68.1297 55.3163 68.2835 55.3083C72.1203 55.1097 74.9394 52.6386 77.1565 47.5308C77.4034 46.962 77.5474 46.4379 77.6002 45.9603C77.6753 45.2851 77.5599 44.7019 77.2451 44.2208ZM62.3315 51.4464L62.3064 51.3739C61.9013 50.2336 61.5292 49.1836 61.4228 48.2821L61.4389 48.2642C61.4326 48.2588 61.4255 48.2544 61.4192 48.2463C61.3476 47.6051 61.4129 47.038 61.7027 46.573C62.3851 45.4863 64.3402 44.7771 67.6834 44.4077C67.9812 44.3746 68.2987 44.337 68.6269 44.2977C69.9909 44.1358 71.539 43.9524 72.9298 43.9524C74.7274 43.9524 75.8427 44.2646 76.2452 44.8772C76.5484 45.3387 76.4858 46.0721 76.0601 47.055C74.0173 51.7603 71.6016 53.9363 68.2254 54.1125C68.0912 54.1197 67.9454 54.1241 67.7961 54.1241C67.0385 54.1241 63.2357 53.9936 62.3315 51.4464ZM55.6782 51.4464C54.7722 53.9944 50.9694 54.1241 50.2163 54.1241C50.0652 54.1241 49.9221 54.1197 49.787 54.1125C46.4108 53.9372 43.9951 51.7603 41.9523 47.055C41.5257 46.0721 41.464 45.3387 41.7672 44.8772C42.1697 44.2637 43.2849 43.9524 45.0835 43.9524C46.4734 43.9524 48.0197 44.1358 49.3845 44.2977C49.7128 44.337 50.0303 44.3746 50.3281 44.4077C53.6695 44.7771 55.6264 45.4863 56.3079 46.573C57.0108 47.6963 56.4054 49.4001 55.7051 51.373L55.6782 51.4464Z" fill="#26232C"/>
<path d="M62.3315 51.4465L62.3064 51.3741C61.9013 50.2338 61.5292 49.1838 61.4228 48.2822L61.4389 48.2643C61.4326 48.259 61.4255 48.2545 61.4192 48.2465C61.3476 47.6052 61.4129 47.0382 61.7027 46.5731C62.3851 45.4864 64.3402 44.7772 67.6834 44.4078C67.9812 44.3747 68.2987 44.3372 68.6269 44.2978C69.9908 44.1359 71.539 43.9526 72.9297 43.9526C74.7274 43.9526 75.8427 44.2647 76.2452 44.8774C76.5484 45.3389 76.4858 46.0722 76.06 47.0552C74.0173 51.7604 71.6016 53.9364 68.2254 54.1126C68.0912 54.1198 67.9454 54.1243 67.7961 54.1243C67.0385 54.1243 63.2357 53.9937 62.3315 51.4465ZM55.6782 51.4465C54.7722 53.9946 50.9694 54.1243 50.2163 54.1243C50.0652 54.1243 49.9221 54.1198 49.787 54.1126C46.4108 53.9373 43.9951 51.7604 41.9523 47.0552C41.5257 46.0722 41.464 45.3389 41.7672 44.8774C42.1696 44.2638 43.2849 43.9526 45.0835 43.9526C46.4734 43.9526 48.0197 44.1359 49.3845 44.2978C49.7128 44.3372 50.0303 44.3747 50.3281 44.4078C53.6695 44.7772 55.6264 45.4864 56.3079 46.5731C57.0108 47.6964 56.4053 49.4002 55.7051 51.3732L55.6782 51.4465Z" fill="white"/>
<path d="M72.344 28.1734C72.344 28.1734 72.7787 35.771 60.3925 45.1798C63.4352 40.8377 63.4352 37.9417 63.4352 37.9417C63.4352 37.9417 60.8808 42.5781 53.3833 47.1922C54.2804 45.2254 56.807 38.1 56.807 38.1C56.807 38.1 51.9971 44.5457 49.5536 48.616C50.5321 45.3596 51.1018 40.4763 55.5844 36.745C51.5096 38.7117 45.2338 44.5466 45.4789 51.9413C44.0103 50.1767 44.4182 44.0037 44.4182 44.0037C44.4182 44.0037 40.7521 46.8532 41.9738 57.8432C40.6707 56.4865 39.1217 44.8176 39.1217 44.8176C39.1217 44.8176 36.3787 46.8988 36.7051 53.5011C33.0981 49.4004 23.624 24.9876 56.1541 16.4142C56.1541 16.4142 75.7641 12.1105 81.742 26.5C88.6162 43.0405 83.6909 53.7229 78.6466 58.5203C79.787 54.179 80.8468 50.6516 80.1939 48.684C78.9731 52.5512 75.223 53.3651 75.223 53.3651C75.223 53.3651 79.787 48.0051 79.4614 45.0206C76.0369 49.5667 71.963 50.3117 71.5561 50.1767C77.7487 43.3258 77.7487 40.1356 77.5045 37.6931C74.8151 43.3258 71.7993 44.6146 71.7993 44.6146C71.7993 44.6146 76.6898 36.4043 76.6898 32.8098C73.3484 37.829 72.6964 38.0338 71.3101 39.1867C73.758 35.9973 73.5389 30.5265 72.344 28.1734Z" fill="#5A3017"/>
</g>
<defs>
<clipPath id="clip0_2007_109">
<rect width="118" height="118" fill="white"/>
</clipPath>
</defs>
</svg>
