<svg width="118" height="118" viewBox="0 0 118 118" fill="none" xmlns="http://www.w3.org/2000/svg">
<path d="M85.7424 43.4068C85.7424 28.1233 73.3536 12.0001 58.0701 12.0001C42.7866 12.0001 30.3979 28.1233 30.3979 43.4068C30.3979 58.6903 42.7866 71.0791 58.0701 71.0791C73.3536 71.0781 85.7424 58.6894 85.7424 43.4068Z" fill="#583A2F"/>
<path d="M42.5744 102.32H77.7074C77.7074 102.32 81.2927 64.0429 80.8354 48.8828C80.3781 33.7227 65.8958 24.4236 52.9391 24.4236C39.9824 24.4236 26.5683 82.8916 42.5744 102.32Z" fill="#583A2F"/>
<path d="M90.2067 92.3418C87.3832 86.9967 74.422 82.9704 65.9698 80.8567V62.768H51.0302V80.8567C42.578 82.9704 29.6168 86.9967 26.7933 92.3418C23.6387 103.553 21 117.799 21 117.799H58.5H96C96 117.799 94.2174 102.524 90.2067 92.3418Z" fill="#F1C9A5"/>
<path d="M90.2067 92.3418C87.3832 86.9967 74.422 82.9704 65.9698 80.8567V62.768H58.5V79.193V87.7704V117.799H96C96 117.799 94.2174 102.524 90.2067 92.3418Z" fill="#E4B692"/>
<path opacity="0.1" d="M51.0302 74.3537C52.3738 78.2107 57.7957 80.4214 61.778 80.4214C63.2186 80.4214 64.6198 80.1799 65.9698 79.7381V62.768H51.0302V74.3537Z" fill="#DDAC8C"/>
<path d="M77.7073 46.9913C77.7073 31.3749 69.1079 22.4947 58.5 22.4947C47.8921 22.4947 39.2927 31.3749 39.2927 46.9913C39.2927 62.6078 47.8921 75.2691 58.5 75.2691C69.107 75.2691 77.7073 62.6087 77.7073 46.9913Z" fill="#F1C9A5"/>
<path d="M74.7833 57.8226C71.3013 57.4879 68.9506 54.036 69.5397 50.1187C70.1223 46.1976 73.4195 43.2863 76.9034 43.6202C80.3836 43.954 82.7305 47.404 82.1433 51.3251C81.5598 55.2461 78.2653 58.1546 74.7833 57.8226Z" fill="#E4B692"/>
<path d="M34.2028 51.3249C33.6146 47.4039 35.9625 43.9539 39.4409 43.6201C42.9265 43.2871 46.2238 46.1975 46.8082 50.1185C47.3964 54.0359 45.043 57.4877 41.5637 57.8225C38.0808 58.1545 34.7872 55.246 34.2028 51.3249Z" fill="#F1C9A5"/>
<path d="M77.7073 46.9913C77.7073 31.3749 69.1079 22.4947 58.5 22.4947V75.2691C69.107 75.2691 77.7073 62.6087 77.7073 46.9913Z" fill="#E4B692"/>
<path d="M65.9698 80.8576V76.7774C63.5552 76.985 61.0582 77.0948 58.5 77.0948C55.9418 77.0948 53.4448 76.985 51.0302 76.7774V80.8576C42.578 82.9713 29.6168 86.9975 26.7933 92.3427C23.6387 103.554 21 117.8 21 117.8H58.5H96C96 117.8 94.2183 102.525 90.2067 92.3427C87.3832 86.9975 74.422 82.9704 65.9698 80.8576Z" fill="#C51C39"/>
<path d="M49.3418 81.1266C49.3418 81.135 49.3418 81.1424 49.3418 81.1498" stroke="white" stroke-width="1.4308" stroke-linecap="round" stroke-linejoin="round"/>
<path d="M49.5129 82.8935C50.336 87.1054 54.0467 90.2828 58.501 90.2828C63.2598 90.2828 67.1708 86.6535 67.6162 82.0118" stroke="white" stroke-width="1.4308" stroke-linecap="round" stroke-linejoin="round" stroke-dasharray="0.05 1.92"/>
<path d="M67.6583 81.1495C67.6583 81.1412 67.6583 81.1338 67.6583 81.1263" stroke="white" stroke-width="1.4308" stroke-linecap="round" stroke-linejoin="round"/>
<path d="M30.3979 43.4066C30.3979 43.4066 27.0247 99.3612 24.5095 117.799H43.7168L39.8131 65.8764" fill="#583A2F"/>
<path d="M85.7415 43.4066C85.7415 43.4066 89.1146 99.3612 91.6299 117.799H72.4226L74.9662 68.8591" fill="#583A2F"/>
<path d="M59.6049 19.3619C48.1253 19.3619 37.7158 32.1458 37.7158 44.2601C37.7158 44.3067 37.7186 44.3515 37.7186 44.3973H48.5597L49.586 36.3128V44.3973H60.5616V36.3128L62.486 44.3973H69.45V37.6848L71.1201 44.3973H79.2823C79.2823 44.3506 79.285 44.3058 79.285 44.2601C79.285 32.1458 71.0835 19.3619 59.6049 19.3619Z" fill="#583A2F"/>
</svg>
