<svg width="118" height="118" viewBox="0 0 118 118" fill="none" xmlns="http://www.w3.org/2000/svg">
<g clip-path="url(#clip0_2007_250)">
<path d="M59.4999 70.4191C73.7544 70.4191 85.3099 58.2045 85.3099 43.137C85.3099 28.0695 73.7544 15.8549 59.4999 15.8549C45.2455 15.8549 33.6899 28.0695 33.6899 43.137C33.6899 58.2045 45.2455 70.4191 59.4999 70.4191Z" fill="#EC9A1C"/>
<path d="M91.2062 92.7301C86.9386 84.6507 59.5 79.5809 59.5 79.5809C59.5 79.5809 32.0596 84.6507 27.7921 92.7301C24.6381 103.941 22.245 118.187 22.245 118.187H59.5H96.4093C96.4093 118.187 95.2183 102.912 91.2062 92.7301Z" fill="#F1C9A5"/>
<path d="M59.5 79.5809C59.5 79.5809 86.9386 84.6507 91.2062 92.7301C95.2183 102.913 96.4093 118.187 96.4093 118.187H59.5V79.5809Z" fill="#E4B692"/>
<path d="M66.9698 63.1552H52.0295V88.1577H66.9698V63.1552Z" fill="#F1C9A5"/>
<path d="M66.9706 63.1552H59.5V88.1577H66.9706V63.1552Z" fill="#E4B692"/>
<path opacity="0.1" d="M52.0302 74.7411C53.3742 78.5977 58.7966 80.8093 62.7787 80.8093C64.2198 80.8093 65.6206 80.5685 66.9706 80.1257V63.1552H52.0302V74.7411Z" fill="#DDAC8C"/>
<path d="M78.708 47.3796C78.708 31.7626 70.1075 22.8826 59.5001 22.8826C48.8927 22.8826 40.2922 31.7626 40.2922 47.3796C40.2922 62.9967 48.8927 75.6575 59.5001 75.6575C70.1075 75.6575 78.708 62.9967 78.708 47.3796Z" fill="#F1C9A5"/>
<path d="M76.4689 58.2075C72.9872 57.8197 70.6363 53.8325 71.2271 49.3052C71.8083 44.7745 75.1068 41.4116 78.5902 41.7968C82.0701 42.182 84.4175 46.1675 83.8302 50.6982C83.2455 55.2298 79.9522 58.5893 76.4689 58.2075Z" fill="#E4B692"/>
<path d="M35.0778 50.6982C34.4896 46.1675 36.8362 42.1829 40.3144 41.7968C43.8012 41.4116 47.098 44.7745 47.6818 49.3052C48.27 53.8324 45.9165 57.8188 42.4366 58.2075C38.955 58.5884 35.6599 55.2289 35.0778 50.6982Z" fill="#F1C9A5"/>
<path d="M78.7079 47.3796C78.7079 31.7626 70.1074 22.8826 59.5 22.8826V75.6575C70.1074 75.6575 78.7079 62.9967 78.7079 47.3796Z" fill="#E4B692"/>
<path d="M59.5001 30.9803C66.6744 30.9803 72.4902 25.1644 72.4902 17.9901C72.4902 10.8159 66.6744 5 59.5001 5C52.3258 5 46.51 10.8159 46.51 17.9901C46.51 25.1644 52.3258 30.9803 59.5001 30.9803Z" fill="#EC9A1C"/>
<path d="M48.087 82.153C48.087 82.1655 48.087 82.1769 48.087 82.1884" stroke="white" stroke-width="1.9426" stroke-linecap="round" stroke-linejoin="round"/>
<path d="M48.3036 84.4097C49.3561 89.7857 54.0922 93.8417 59.7786 93.8417C65.8459 93.8417 70.8366 89.2173 71.4136 83.2996" stroke="white" stroke-width="1.9426" stroke-linecap="round" stroke-linejoin="round" stroke-dasharray="0.07 2.6"/>
<path d="M71.4695 82.1884C71.4695 82.1759 71.4695 82.1655 71.4695 82.153" stroke="white" stroke-width="1.9426" stroke-linecap="round" stroke-linejoin="round"/>
<path d="M59.5 104.229C46.4591 104.229 34.7218 101.657 26.5092 97.5508C23.9528 107.637 22 118.186 22 118.186H59.5H97C97 118.186 95.6939 107.004 92.803 97.3969C84.5791 101.593 72.7051 104.229 59.5 104.229Z" fill="#92278F"/>
<path d="M37.568 85.8775V103.017H40.2921V84.7992C39.3651 85.144 38.4528 85.5034 37.568 85.8775Z" fill="#92278F"/>
<path d="M83.9205 87.0086C83.0503 86.5829 82.1388 86.1719 81.1947 85.7789V103.018H83.9205V87.0086Z" fill="#92278F"/>
<path d="M40.3145 41.7954C40.3145 41.7954 61.4959 41.8031 66.9707 33.5715C71.5306 40.4316 78.708 41.816 78.708 41.816L78.2497 27.6263L65.3567 20.0809L41.3791 24.425L40.3145 41.7954Z" fill="#EC9A1C"/>
<path d="M66.9698 77.4745H52.0295V81.2433H66.9698V77.4745Z" fill="#92278F"/>
<path d="M79.1644 55.9804H77.3354V57.8102H79.1644V55.9804Z" fill="white"/>
<path d="M42.294 55.9804H40.465V57.8102H42.294V55.9804Z" fill="white"/>
</g>
<defs>
<clipPath id="clip0_2007_250">
<rect width="118" height="118" fill="white"/>
</clipPath>
</defs>
</svg>
