<svg width="118" height="118" viewBox="0 0 118 118" fill="none" xmlns="http://www.w3.org/2000/svg">
<path d="M87.9253 91.6507C83.5516 83.3711 55.4312 78.1754 55.4312 78.1754C55.4312 78.1754 27.3108 83.3711 22.9372 91.6507C19.7042 103.141 17 117.74 17 117.74H55.4312H93.8624C93.8624 117.74 92.0365 102.086 87.9253 91.6507Z" fill="#F1C9A5"/>
<path d="M55.4312 78.1754C55.4312 78.1754 83.5517 83.3711 87.9253 91.6507C92.0365 102.086 93.8625 117.74 93.8625 117.74H55.4312V78.1754Z" fill="#E4B692"/>
<path d="M63.0866 61.343H47.776V86.9663H63.0866V61.343Z" fill="#F1C9A5"/>
<path d="M63.0866 61.343H55.4312V86.9663H63.0866V61.343Z" fill="#E4B692"/>
<path opacity="0.1" d="M47.776 73.2163C49.1529 77.1691 54.7095 79.4347 58.7907 79.4347C60.267 79.4347 61.7031 79.1872 63.0866 78.7345V61.343H47.776V73.2163Z" fill="#DDAC8C"/>
<path d="M75.1155 45.1749C75.1155 29.1706 66.3026 20.0699 55.4312 20.0699C44.5599 20.0699 35.7469 29.1706 35.7469 45.1749C35.7469 61.1792 44.5599 74.1549 55.4312 74.1549C66.3026 74.1549 75.1155 61.1801 75.1155 45.1749Z" fill="#F1C9A5"/>
<path d="M72.1198 56.2712C68.5513 55.8738 66.1423 51.7879 66.7469 47.149C67.344 42.5063 70.7231 39.0597 74.2935 39.4543C77.8601 39.8499 80.2653 43.9339 79.6636 48.5766C79.0636 53.2192 75.6883 56.663 72.1198 56.2712Z" fill="#E4B692"/>
<path d="M31.3395 48.5766C30.7368 43.9339 33.143 39.8489 36.7068 39.4543C40.279 39.0597 43.6582 42.5063 44.2571 47.149C44.8598 51.7879 42.448 55.8747 38.8824 56.2712C35.3139 56.663 31.9385 53.2192 31.3395 48.5766Z" fill="#F1C9A5"/>
<path d="M75.1155 45.1749C75.1155 29.1706 66.3026 20.0699 55.4312 20.0699V74.1549C66.3026 74.1549 75.1155 61.1801 75.1155 45.1749Z" fill="#E4B692"/>
<path d="M46.1197 67.1628C46.1197 67.1628 37.6301 60.2442 39.517 51.1276C41.403 42.01 46.1197 40.439 46.1197 36.3494C53.9793 45.7828 60.8988 52.3827 73.4743 48.9257C77.2471 51.1276 72.5313 62.4488 66.8707 68.4216C82.9068 59.6171 101.457 27.2327 62.7829 14.6545C24.108 2.07714 13.1054 65.2768 46.1197 67.1628Z" fill="#0F303F"/>
<path d="M55.4303 29.9916C65.5911 29.9916 74.0319 37.3347 75.7501 47.0025C75.96 45.8215 76.0753 44.6085 76.0753 43.3684C76.0753 31.9675 66.8331 22.7243 55.4303 22.7243C44.0293 22.7243 34.7871 31.9675 34.7871 43.3684C34.7871 44.6085 34.9024 45.8215 35.1133 47.0025C36.8296 37.3347 45.2694 29.9916 55.4303 29.9916Z" fill="#F3641E"/>
<path d="M40.4168 81.9369C43.1707 83.4123 49.6093 86.4877 55.4303 86.4877C63.0865 86.4877 73.0946 82.7383 73.0946 82.7383L71.7176 82.3418C68.5859 81.3211 65.4739 80.4728 62.8156 79.8129C55.2062 84.3731 47.7843 79.8841 47.7768 79.8794C45.5431 80.439 43.0067 81.1289 40.4168 81.9369Z" fill="#FA582A"/>
<path d="M87.9253 91.6508C86.4461 88.851 82.2487 86.4054 77.3454 84.3929C74.6384 93.9501 65.8554 100.956 55.4312 100.956C45.007 100.956 36.224 93.9501 33.517 84.3929C28.6137 86.4064 24.4163 88.851 22.9372 91.6508C19.7042 103.141 17 117.74 17 117.74H55.4312H93.8624C93.8624 117.74 92.0365 102.086 87.9253 91.6508Z" fill="#1594A3"/>
<path d="M100.083 76.8226C95.8647 75.3191 89.1467 78.5998 84.7337 78.1761C79.911 77.713 77.3005 80.99 74.3348 80.3957C68.6329 79.2531 68.108 81.319 68.108 81.319C68.108 81.319 66.7291 78.521 72.432 79.434C78.1348 80.3479 82.4934 77.6221 83.7963 75.8646C85.7657 73.2081 92.3496 73.8343 92.3496 73.8343L88.9133 69.8496C86.4922 69.381 82.8984 69.6931 80.9459 73.0525C78.9934 76.412 77.1965 76.8019 71.7177 76.1767C66.2389 75.5515 62.8157 79.8127 62.8157 79.8127L73.1734 82.8272C73.1734 82.8272 75.3105 83.4102 77.4983 83.354C79.6861 83.2968 81.9732 81.0444 86.5493 81.3912C91.4507 81.7624 95.9031 79.3796 101.671 81.5355L100.083 76.8226Z" fill="#FA582A"/>
</svg>
